<svg width="75" height="24" viewBox="0 0 75 24" fill="none" xmlns="http://www.w3.org/2000/svg">
<path d="M17 2H5.21429L2 9H5.07604L6.73503 5.25476H15.5484L17 2Z" fill="white"/>
<path d="M20 9.04287L16.9765 2L15.5305 5.29571L17.1737 9.04287L13 18.6591L14.4131 22L20 9.04287Z" fill="white"/>
<path d="M7.73184 22L2 10H4.98324L9.20672 18.8951H12.5252L14 22H7.73184Z" fill="white"/>
<path d="M15.4378 6L17 9.03844L16.4906 10C16.4906 10 16.3547 9.57692 16.151 9.30766C15.9472 9.03844 15.4378 8.84614 15.4378 8.84614H8.78158C8.40802 8.11536 8.27405 7.96153 8.03445 7.26923C7.79485 6.57692 8.88344 6.07692 8.88344 6.07692L15.4378 6Z" fill="white"/>
<path d="M12.7487 18H9.48131L8.99979 17.0117C8.99979 17.0117 9.41029 17.0785 9.72204 17.0117C10.0338 16.945 10.4099 16.6164 10.4099 16.6164L13.8493 10.0147C14.6044 10.0146 14.8318 9.95664 15.4891 10.0716C16.1465 10.1866 15.9813 11.5408 15.9813 11.5408L12.7487 18Z" fill="white"/>
<path d="M5 9.39139L6.71655 6H7.8982C7.8982 6 7.59935 6.2759 7.49199 6.66203C7.38462 7.04817 7.38122 7.54476 7.38122 7.54476L11 15.0478C10.608 15.896 10.4939 16.0751 10.0585 16.7513C9.62303 17.4275 8.60173 16.5106 8.60173 16.5106L5 9.39139Z" fill="white"/>
<path d="M22.8606 11.2398C22.8606 11.604 22.9036 11.9301 22.9896 12.2181C23.0771 12.5061 23.2027 12.7503 23.3666 12.9508C23.5305 13.1498 23.73 13.303 23.9649 13.4103C24.2012 13.5161 24.4676 13.5691 24.764 13.5691C25.2448 13.5691 25.6355 13.4293 25.936 13.1498C26.2365 12.8689 26.4366 12.4581 26.5363 11.9174H27.3969C27.3354 12.3042 27.2296 12.6508 27.0793 12.9571C26.929 13.2634 26.7405 13.5232 26.5138 13.7364C26.2871 13.9495 26.0261 14.1126 25.7311 14.2255C25.436 14.3384 25.113 14.3949 24.762 14.3949C24.4887 14.3949 24.2306 14.3603 23.9875 14.2912C23.7443 14.222 23.5203 14.1232 23.3154 13.9947C23.1119 13.8648 22.9288 13.7074 22.7663 13.5225C22.6037 13.3362 22.4651 13.1265 22.3504 12.8936C22.237 12.6593 22.1502 12.403 22.0902 12.1249C22.03 11.8468 22 11.5518 22 11.2398C22 10.9264 22.03 10.6314 22.0902 10.3547C22.1502 10.0766 22.237 9.82107 22.3504 9.58814C22.4651 9.35379 22.6037 9.14417 22.7663 8.95922C22.9288 8.77288 23.1119 8.6155 23.3154 8.48703C23.5203 8.35716 23.7443 8.25763 23.9875 8.18846C24.2306 8.11929 24.4887 8.0847 24.762 8.0847C25.113 8.0847 25.436 8.14117 25.7311 8.2541C26.0261 8.36704 26.2871 8.53009 26.5138 8.74323C26.7405 8.95641 26.929 9.21617 27.0793 9.52248C27.2296 9.82883 27.3354 10.1754 27.3969 10.5622H26.5363C26.4366 10.0215 26.2365 9.61142 25.936 9.3319C25.6355 9.051 25.2448 8.91053 24.764 8.91053C24.4676 8.91053 24.2012 8.96417 23.9649 9.07147C23.73 9.17734 23.5305 9.33052 23.3666 9.53099C23.2027 9.73 23.0771 9.97353 22.9896 10.2615C22.9036 10.5495 22.8606 10.8756 22.8606 11.2398ZM32.6982 9.59871L30.8275 14.5622C30.7332 14.8107 30.6233 15.0252 30.4976 15.2059C30.3733 15.3866 30.2299 15.5356 30.0673 15.6527C29.9062 15.7713 29.7252 15.8588 29.5244 15.9153C29.3249 15.9718 29.103 16 28.8585 16C28.7246 16 28.5989 15.9915 28.4815 15.9746V15.2271C28.5539 15.237 28.6208 15.2441 28.6823 15.2483C28.7451 15.2525 28.8052 15.2546 28.8626 15.2546C28.9992 15.2546 29.1228 15.2412 29.2334 15.2144C29.3441 15.1876 29.4424 15.1459 29.5285 15.0895C29.6159 15.033 29.6917 14.961 29.7559 14.8735C29.8201 14.7874 29.8741 14.6836 29.9178 14.5622L29.9751 14.4055L28.1823 9.59871H29.0429L30.4423 13.4865L31.8581 9.59871H32.6982ZM34.3752 11.0386C34.434 10.7987 34.5152 10.582 34.6191 10.3886C34.7242 10.1952 34.8485 10.0307 34.992 9.89517C35.1354 9.75964 35.2966 9.65519 35.4755 9.58177C35.6544 9.50839 35.8464 9.47166 36.0512 9.47166C36.2368 9.47166 36.4132 9.49921 36.5797 9.55426C36.7466 9.60932 36.9 9.68836 37.041 9.79142C37.1829 9.89449 37.3105 10.0194 37.4239 10.1662C37.5386 10.3116 37.6357 10.4754 37.715 10.6575C37.794 10.8396 37.855 11.038 37.8973 11.2525C37.9409 11.4671 37.9629 11.6937 37.9629 11.9322C37.9629 12.1708 37.9409 12.3974 37.8973 12.612C37.855 12.8265 37.794 13.0256 37.715 13.2091C37.6357 13.3912 37.5386 13.5557 37.4239 13.7025C37.3105 13.8479 37.1829 13.9721 37.041 14.0752C36.9 14.1782 36.7466 14.2573 36.5797 14.3124C36.4132 14.3674 36.2368 14.3949 36.0512 14.3949C35.8464 14.3949 35.6544 14.3582 35.4755 14.2848C35.2966 14.2114 35.1354 14.1069 34.992 13.9714C34.8485 13.8345 34.7242 13.6693 34.6191 13.4759C34.5152 13.2825 34.434 13.0658 34.3752 12.8258V14.2679H33.5454V8H34.3752V11.0386ZM34.3752 11.9322C34.3752 12.199 34.4066 12.4383 34.4695 12.6501C34.5337 12.8604 34.6259 13.039 34.7461 13.1858C34.8663 13.3326 35.0125 13.4456 35.1846 13.5246C35.3567 13.6023 35.5513 13.6411 35.7685 13.6411C35.9898 13.6411 36.185 13.6044 36.3545 13.531C36.5237 13.4562 36.666 13.3467 36.7807 13.2027C36.8968 13.0574 36.9843 12.8788 37.043 12.667C37.103 12.4538 37.1331 12.2089 37.1331 11.9322C37.1331 11.6556 37.103 11.4113 37.043 11.1996C36.9843 10.9864 36.8974 10.8078 36.7827 10.6638C36.6679 10.5199 36.5253 10.4112 36.3545 10.3377C36.185 10.2629 35.9898 10.2255 35.7685 10.2255C35.5513 10.2255 35.3567 10.2643 35.1846 10.342C35.0125 10.4196 34.8663 10.5318 34.7461 10.6786C34.6259 10.8255 34.5337 11.0047 34.4695 11.2165C34.4066 11.4269 34.3752 11.6654 34.3752 11.9322ZM39.7551 14.2679H38.9254V9.59871H39.7551V11.0873C39.8072 10.8544 39.8829 10.6462 39.9826 10.4627C40.0823 10.2792 40.2045 10.1232 40.3494 9.99471C40.4957 9.86623 40.6648 9.76811 40.8576 9.70035C41.05 9.63259 41.2661 9.59871 41.505 9.59871H41.7099V10.4161H41.507C41.1766 10.4161 40.8992 10.4479 40.6753 10.5114C40.4511 10.5735 40.2708 10.6681 40.1344 10.7951C39.999 10.9222 39.902 11.0824 39.8433 11.2758C39.7846 11.4678 39.7551 11.6937 39.7551 11.9534V14.2679ZM43.515 9.05876H42.6442V8H43.515V9.05876ZM43.4946 14.2679H42.6646V9.59871H43.4946V14.2679ZM44.5735 11.225C44.5735 10.9568 44.6214 10.7147 44.7168 10.4987C44.8125 10.2827 44.9492 10.0984 45.1266 9.94599C45.3056 9.79352 45.5219 9.67637 45.776 9.59448C46.0301 9.51262 46.315 9.47166 46.6307 9.47166C46.9654 9.47166 47.265 9.51825 47.5299 9.61142C47.7951 9.7032 48.0197 9.83587 48.2042 10.0095C48.3885 10.1831 48.5298 10.3956 48.6281 10.6469C48.7265 10.8968 48.7756 11.1805 48.7756 11.4981V14.2679H47.9459V13.0122C47.8915 13.2268 47.8079 13.4194 47.6961 13.5903C47.5853 13.7611 47.4502 13.9065 47.2902 14.0265C47.1319 14.1451 46.9509 14.2361 46.7474 14.2996C46.5438 14.3632 46.3231 14.3949 46.0855 14.3949C45.8383 14.3949 45.6137 14.361 45.4115 14.2933C45.2092 14.2255 45.0358 14.1302 44.8909 14.0074C44.7476 13.8846 44.6361 13.7371 44.5571 13.5648C44.4791 13.3912 44.4401 13.1985 44.4401 12.9867C44.4401 12.7736 44.4804 12.5816 44.5611 12.4108C44.643 12.24 44.7597 12.0953 44.9115 11.9767C45.0646 11.8567 45.2495 11.765 45.4669 11.7014C45.6852 11.6379 45.9304 11.6061 46.2022 11.6061H47.9459V11.4981C47.9459 11.3061 47.9144 11.1332 47.8518 10.9793C47.7902 10.8241 47.702 10.6928 47.5873 10.5855C47.4725 10.4768 47.3332 10.3935 47.1693 10.3356C47.0054 10.2777 46.8211 10.2488 46.6162 10.2488C46.4071 10.2488 46.2261 10.2721 46.0733 10.3187C45.9216 10.3653 45.796 10.4316 45.6963 10.5177C45.598 10.6024 45.5242 10.7048 45.4751 10.8248C45.4272 10.9448 45.4033 11.0782 45.4033 11.225H44.5735ZM46.194 12.3261C45.8868 12.3261 45.6541 12.3797 45.4954 12.487C45.3384 12.5943 45.2597 12.751 45.2597 12.9571C45.2597 13.0686 45.2823 13.1675 45.3275 13.2536C45.3738 13.3383 45.4416 13.4103 45.5301 13.4695C45.619 13.5274 45.7285 13.5719 45.858 13.603C45.9891 13.6326 46.1396 13.6474 46.3087 13.6474C46.5493 13.6474 46.7693 13.6185 46.9686 13.5606C47.1693 13.5013 47.3424 13.4187 47.4869 13.3128C47.6318 13.207 47.7446 13.0813 47.8249 12.9359C47.9056 12.7891 47.9459 12.6289 47.9459 12.4553V12.3261H46.194ZM52.8935 11.2398C52.8935 11.604 52.9364 11.9301 53.0223 12.2181C53.1099 12.5061 53.2354 12.7503 53.3993 12.9508C53.5633 13.1498 53.7629 13.303 53.9976 13.4103C54.234 13.5161 54.5005 13.5691 54.7969 13.5691C55.2778 13.5691 55.6682 13.4293 55.9689 13.1498C56.2695 12.8689 56.4695 12.4581 56.5691 11.9174H57.4297C57.3684 12.3042 57.2625 12.6508 57.112 12.9571C56.9619 13.2634 56.7734 13.5232 56.5465 13.7364C56.32 13.9495 56.059 14.1126 55.764 14.2255C55.4689 14.3384 55.1457 14.3949 54.7949 14.3949C54.5215 14.3949 54.2635 14.3603 54.0202 14.2912C53.777 14.222 53.5531 14.1232 53.3482 13.9947C53.1446 13.8648 52.9617 13.7074 52.7991 13.5225C52.6365 13.3362 52.4978 13.1265 52.3831 12.8936C52.27 12.6593 52.1831 12.403 52.1231 12.1249C52.0628 11.8468 52.0329 11.5518 52.0329 11.2398C52.0329 10.9264 52.0628 10.6314 52.1231 10.3547C52.1831 10.0766 52.27 9.82107 52.3831 9.58814C52.4978 9.35379 52.6365 9.14417 52.7991 8.95922C52.9617 8.77288 53.1446 8.6155 53.3482 8.48703C53.5531 8.35716 53.777 8.25763 54.0202 8.18846C54.2635 8.11929 54.5215 8.0847 54.7949 8.0847C55.1457 8.0847 55.4689 8.14117 55.764 8.2541C56.059 8.36704 56.32 8.53009 56.5465 8.74323C56.7734 8.95641 56.9619 9.21617 57.112 9.52248C57.2625 9.82883 57.3684 10.1754 57.4297 10.5622H56.5691C56.4695 10.0215 56.2695 9.61142 55.9689 9.3319C55.6682 9.051 55.2778 8.91053 54.7969 8.91053C54.5005 8.91053 54.234 8.96417 53.9976 9.07147C53.7629 9.17734 53.5633 9.33052 53.3993 9.53099C53.2354 9.73 53.1099 9.97353 53.0223 10.2615C52.9364 10.5495 52.8935 10.8756 52.8935 11.2398ZM59.3242 14.2679H58.4945V8H59.3242V10.9476C59.3786 10.7175 59.4573 10.5114 59.5599 10.3293C59.6622 10.1472 59.7851 9.99257 59.9287 9.86555C60.072 9.73847 60.2339 9.64106 60.4142 9.5733C60.5945 9.50554 60.7899 9.47166 61.0001 9.47166C61.2571 9.47166 61.4872 9.5218 61.6908 9.62202C61.894 9.72224 62.0662 9.86694 62.2071 10.0561C62.3491 10.2439 62.4576 10.4733 62.5327 10.7443C62.6077 11.0139 62.6454 11.3181 62.6454 11.6569V14.2679H61.8157V11.6569C61.8157 11.1883 61.7193 10.8361 61.5269 10.6003C61.3341 10.3646 61.044 10.2467 60.6558 10.2467C60.447 10.2467 60.2598 10.2806 60.0946 10.3483C59.9307 10.4147 59.7914 10.5121 59.6766 10.6405C59.5632 10.7676 59.4757 10.9243 59.4143 11.1106C59.354 11.2956 59.3242 11.5059 59.3242 11.7416V14.2679ZM63.7004 11.225C63.7004 10.9568 63.7482 10.7147 63.844 10.4987C63.9397 10.2827 64.0761 10.0984 64.2538 9.94599C64.4328 9.79352 64.6491 9.67637 64.9032 9.59448C65.1573 9.51262 65.4421 9.47166 65.7575 9.47166C66.0922 9.47166 66.3922 9.51825 66.6571 9.61142C66.9223 9.7032 67.1469 9.83587 67.3311 10.0095C67.5157 10.1831 67.657 10.3956 67.7553 10.6469C67.8537 10.8968 67.9028 11.1805 67.9028 11.4981V14.2679H67.0731V13.0122C67.0183 13.2268 66.9351 13.4194 66.823 13.5903C66.7125 13.7611 66.5771 13.9065 66.4174 14.0265C66.2591 14.1451 66.0781 14.2361 65.8745 14.2996C65.671 14.3632 65.4503 14.3949 65.2127 14.3949C64.9655 14.3949 64.7406 14.361 64.5386 14.2933C64.3364 14.2255 64.163 14.1302 64.0181 14.0074C63.8748 13.8846 63.7633 13.7371 63.684 13.5648C63.6063 13.3912 63.5673 13.1985 63.5673 12.9867C63.5673 12.7736 63.6076 12.5816 63.6883 12.4108C63.7702 12.24 63.8869 12.0953 64.0387 11.9767C64.1915 11.8567 64.3767 11.765 64.5937 11.7014C64.8124 11.6379 65.0576 11.6061 65.3294 11.6061H67.0731V11.4981C67.0731 11.3061 67.0416 11.1332 66.9787 10.9793C66.9174 10.8241 66.8292 10.6928 66.7144 10.5855C66.5997 10.4768 66.4604 10.3935 66.2965 10.3356C66.1325 10.2777 65.9483 10.2488 65.7434 10.2488C65.5343 10.2488 65.3533 10.2721 65.2002 10.3187C65.0487 10.3653 64.9232 10.4316 64.8232 10.5177C64.7248 10.6024 64.6511 10.7048 64.6019 10.8248C64.5544 10.9448 64.5304 11.0782 64.5304 11.225H63.7004ZM65.3212 12.3261C65.014 12.3261 64.7809 12.3797 64.6226 12.487C64.4655 12.5943 64.3869 12.751 64.3869 12.9571C64.3869 13.0686 64.4095 13.1675 64.4544 13.2536C64.5009 13.3383 64.5685 13.4103 64.6573 13.4695C64.7462 13.5274 64.8553 13.5719 64.9851 13.603C65.1163 13.6326 65.2668 13.6474 65.4359 13.6474C65.6765 13.6474 65.8962 13.6185 66.0958 13.5606C66.2965 13.5013 66.4692 13.4187 66.6141 13.3128C66.759 13.207 66.8715 13.0813 66.9521 12.9359C67.0328 12.7891 67.0731 12.6289 67.0731 12.4553V12.3261H65.3212ZM69.8006 9.05876H68.9299V8H69.8006V9.05876ZM69.78 14.2679H68.9502V9.59871H69.78V14.2679ZM71.6784 14.2679H70.8487V9.59871H71.6784V10.9476C71.7332 10.7175 71.8119 10.5114 71.9141 10.3293C72.0167 10.1472 72.1397 9.99257 72.2829 9.86555C72.4265 9.73847 72.5882 9.64106 72.7685 9.5733C72.9488 9.50554 73.1442 9.47166 73.3546 9.47166C73.6126 9.47166 73.8437 9.5218 74.047 9.62202C74.2506 9.72224 74.4227 9.86694 74.5633 10.0561C74.7056 10.2439 74.8135 10.4733 74.8872 10.7443C74.9623 11.0139 75 11.3181 75 11.6569V14.2679H74.1699V11.6569C74.1699 11.1883 74.0739 10.8361 73.8811 10.6003C73.6887 10.3646 73.3982 10.2467 73.0104 10.2467C72.8013 10.2467 72.6144 10.2806 72.4488 10.3483C72.2849 10.4147 72.1456 10.5121 72.0308 10.6405C71.9177 10.7676 71.8302 10.9243 71.7686 11.1106C71.7086 11.2956 71.6784 11.5059 71.6784 11.7416V14.2679Z" fill="white"/>
</svg>
