<svg width="52" height="46" viewBox="0 0 52 46" fill="none" xmlns="http://www.w3.org/2000/svg">
<path d="M40 0H9.35714L1 15H8.9977L13.3111 6.9745H36.2258L40 0Z" fill="black"/>
<path d="M50.4002 15.6615L41.2895 0.22572L37.3177 7.66304L42.2645 15.8731L30.8063 37.5703L35.0674 44.894L50.4002 15.6615Z" fill="black"/>
<path d="M16.982 45.01L0.782227 16.252L8.98521 16.1277L20.9239 37.446L30.0486 37.3078L34.2175 44.749L16.982 45.01Z" fill="black"/>
<path d="M36.8342 9L41 15.8365L39.6416 18C39.6416 18 39.2793 17.0481 38.736 16.4422C38.1927 15.8365 36.8342 15.4038 36.8342 15.4038H19.0842C18.088 13.7596 17.7308 13.4134 17.0919 11.8558C16.4529 10.2981 19.3558 9.17307 19.3558 9.17307L36.8342 9Z" fill="black"/>
<path d="M30.64 36H22.2382L21 33.5293C21 33.5293 22.0556 33.6961 22.8572 33.5293C23.6589 33.3626 24.6261 32.541 24.6261 32.541L33.4702 16.0369C35.4119 16.0364 35.9965 15.8916 37.6869 16.1791C39.3772 16.4665 38.9525 19.8519 38.9525 19.8519L30.64 36Z" fill="black"/>
<path d="M10 16.3994L14.5775 9H17.7285C17.7285 9 16.9316 9.60195 16.6453 10.4444C16.359 11.2869 16.3499 12.3704 16.3499 12.3704L26 28.7407C24.9546 30.5912 24.6504 30.982 23.4893 32.4574C22.3281 33.9327 19.6046 31.9322 19.6046 31.9322L10 16.3994Z" fill="black"/>
</svg>
